<svg width="334" height="118" viewBox="0 0 334 118" fill="none" xmlns="http://www.w3.org/2000/svg">
<g clip-path="url(#clip0_30_175)">
<rect width="334" height="118" rx="30" fill="url(#paint0_linear_30_175)"/>
<path fill-rule="evenodd" clip-rule="evenodd" d="M334.516 -61.6635C327.755 -54.9191 319.36 -45.6737 316.702 -35.1802C315.871 -31.901 315.6 -28.4986 316.113 -25.0129C315.553 -22.5455 315.316 -20.0106 315.496 -17.4251C315.429 -17.1865 315.365 -16.9472 315.304 -16.7073C314.832 -14.8432 314.541 -12.9393 314.472 -11.0028C314.153 -10.0971 313.873 -9.18081 313.639 -8.25481C313.569 -7.97766 313.502 -7.69964 313.44 -7.42076C307.277 -0.994805 300.58 7.21779 298.258 16.3824C296.927 21.6383 297.033 27.211 299.503 32.9354C301.972 38.6571 306.794 44.5081 314.854 50.338C333.631 63.9195 351.102 64.6009 364.506 65.1236C365.751 65.1721 366.96 65.2193 368.133 65.2753C375.053 65.606 380.594 66.2445 384.45 69.1875C388.286 72.115 390.528 77.3906 390.641 87.1987L391.23 87.2126C391.117 77.3553 388.866 71.8574 384.812 68.763C380.778 65.684 375.033 65.052 368.142 64.7227C366.967 64.6666 365.757 64.6193 364.513 64.5706C351.115 64.0468 333.821 63.3705 315.202 49.904C307.206 44.1198 302.466 38.3467 300.048 32.7435C297.631 27.1429 297.524 21.69 298.831 16.5287C301.038 7.81849 307.27 -0.0502673 313.223 -6.34749L313.217 -6.31736C313.066 -5.98484 312.919 -5.65068 312.777 -5.31491C308.671 -0.207536 305.04 5.61082 303.454 11.8738C302.122 17.1297 302.228 22.7024 304.699 28.4267C307.168 34.1484 311.989 39.9994 320.049 45.8293C338.827 59.4109 356.298 60.0922 369.701 60.615C370.946 60.6635 372.156 60.7107 373.328 60.7667C380.248 61.0973 385.79 61.7358 389.646 64.6788C393.481 67.6064 395.724 72.8819 395.837 82.6901L396.426 82.704C396.312 72.8467 394.061 67.3488 390.007 64.2544C385.973 61.1754 380.229 60.5433 373.337 60.2141C372.163 60.158 370.953 60.1106 369.709 60.062C356.311 59.5381 339.016 58.8619 320.398 45.3954C312.401 39.6112 307.661 33.8381 305.243 28.2349C302.826 22.6343 302.719 17.1814 304.027 12.0201C305.326 6.8944 308.018 2.06012 311.227 -2.33401C309.732 0.396816 308.527 3.25478 307.778 6.21189C306.447 11.4678 306.553 17.0405 309.023 22.7648C311.492 28.4865 316.314 34.3375 324.374 40.1674C343.151 53.749 360.622 54.4303 374.026 54.9531L374.027 54.9531L374.027 54.9531L374.032 54.9533L374.035 54.9534C375.277 55.0019 376.483 55.0489 377.653 55.1048C384.573 55.4354 390.114 56.0739 393.97 59.0169C397.806 61.9445 400.048 67.22 400.161 77.0282L400.75 77.0421C400.637 67.1848 398.386 61.6869 394.332 58.5925C390.298 55.5135 384.553 54.8814 377.662 54.5522C376.487 54.4961 375.277 54.4487 374.033 54.4001C360.635 53.8762 343.341 53.2 324.723 39.7335C316.726 33.9493 311.986 28.1762 309.568 22.573C307.151 16.9724 307.044 11.5195 308.351 6.3582C309.027 3.69017 310.081 1.1011 311.389 -1.38804C311.31 -1.10971 311.234 -0.830471 311.163 -0.550343C309.832 4.70553 309.938 10.2783 312.408 16.0026C314.878 21.7243 319.699 27.5753 327.759 33.4052C346.536 46.9868 364.007 47.6681 377.411 48.1908L377.413 48.1909C378.657 48.2394 379.866 48.2866 381.038 48.3426C387.958 48.6732 393.5 49.3117 397.356 52.2547C401.191 55.1823 403.434 60.4578 403.547 70.2659L404.136 70.2799C404.022 60.4225 401.771 54.9247 397.717 51.8302C393.683 48.7513 387.939 48.1192 381.047 47.7899C379.872 47.7338 378.662 47.6865 377.419 47.6379C364.021 47.114 346.726 46.4378 328.108 32.9713C320.111 27.1871 315.371 21.414 312.953 15.8107C310.536 10.2102 310.429 4.75723 311.737 -0.404034C312.049 -1.63723 312.442 -2.85355 312.904 -4.05095C312.526 -0.0611734 313.062 4.07727 314.884 8.29815C317.353 14.0198 322.174 19.8708 330.234 25.7007C349.012 39.2823 366.483 39.9636 379.887 40.4864C381.131 40.5349 382.341 40.5821 383.513 40.6381C390.434 40.9687 395.975 41.6072 399.831 44.5503C403.666 47.4778 405.909 52.7533 406.022 62.5615L406.611 62.5754C406.497 52.7181 404.246 47.2202 400.192 44.1258C396.158 41.0468 390.414 40.4147 383.522 40.0855C382.348 40.0294 381.138 39.982 379.894 39.9334C366.496 39.4096 349.201 38.7333 330.583 25.2668C322.586 19.4826 317.847 13.7095 315.428 8.10627C313.458 3.54022 313.023 -0.927705 313.638 -5.21945C313.889 -5.60671 314.144 -5.99103 314.405 -6.37233C314.5 -6.48578 314.596 -6.59888 314.691 -6.71159C314.993 -4.55483 315.595 -2.36592 316.549 -0.154374C319.019 5.56731 323.84 11.4183 331.9 17.2482C350.677 30.8298 368.148 31.5111 381.552 32.0339C382.797 32.0824 384.007 32.1296 385.179 32.1856C392.099 32.5162 397.641 33.1547 401.497 36.0977C405.332 39.0253 407.575 44.3008 407.688 54.109L408.277 54.1229C408.163 44.2656 405.912 38.7677 401.858 35.6733C397.824 32.5943 392.08 31.9622 385.188 31.633C384.013 31.5768 382.803 31.5295 381.56 31.4809C368.162 30.957 350.867 30.2808 332.249 16.8143C324.252 11.0301 319.512 5.25697 317.094 -0.346245C316.079 -2.69739 315.472 -5.02251 315.205 -7.31096C315.906 -8.12082 316.613 -8.91048 317.32 -9.67874C317.388 -9.51162 317.458 -9.34437 317.531 -9.17699C320 -3.45531 324.821 2.39571 332.881 8.22558C351.658 21.8072 369.13 22.4885 382.533 23.0112L382.536 23.0113L382.539 23.0114L382.544 23.0116L382.549 23.0118C383.789 23.0602 384.993 23.1072 386.16 23.163C393.08 23.4936 398.622 24.1321 402.478 27.0751C406.313 30.0027 408.556 35.2782 408.669 45.0864L409.258 45.1003C409.144 35.2429 406.893 29.7451 402.839 26.6506C398.805 23.5717 393.061 22.9396 386.169 22.6103C384.995 22.5542 383.784 22.5069 382.541 22.4583C369.143 21.9344 351.848 21.2582 333.23 7.79167C325.233 2.00747 320.493 -3.76565 318.075 -9.36887C317.963 -9.62873 317.856 -9.88828 317.754 -10.1475C318.804 -11.2761 319.85 -12.3569 320.87 -13.3859C323.641 -9.35581 327.684 -5.2851 333.298 -1.22464C352.075 12.357 369.546 13.0383 382.95 13.561C384.194 13.6096 385.404 13.6567 386.576 13.7127C393.497 14.0434 399.038 14.6819 402.894 17.6249C406.729 20.5524 408.972 25.828 409.085 35.6361L409.674 35.65C409.56 25.7927 407.309 20.2948 403.255 17.2004C399.221 14.1214 393.477 13.4894 386.585 13.1601C385.411 13.104 384.201 13.0567 382.957 13.0081C369.559 12.4842 352.264 11.8079 333.646 -1.65856C328.019 -5.72842 324.005 -9.79279 321.278 -13.7964L321.462 -13.9815L321.704 -14.2225L321.268 -14.6095C321.162 -14.5035 321.055 -14.3968 320.948 -14.2895C320.912 -14.3451 320.875 -14.4008 320.839 -14.4564C322.59 -16.4006 324.356 -18.2161 326.028 -19.8844L325.593 -20.2714C323.961 -18.6435 322.233 -16.8698 320.515 -14.9681C320.295 -15.3212 320.086 -15.6738 319.886 -16.0258C322.924 -19.9898 326.328 -23.5687 329.413 -26.6467L328.978 -27.0336C325.951 -24.0143 322.597 -20.4938 319.577 -16.5844C319.251 -17.1866 318.954 -17.7872 318.683 -18.3859C322.399 -24.5081 327.47 -29.9434 331.889 -34.3511L331.453 -34.7381C327.126 -30.4215 322.129 -25.0804 318.396 -19.0433C318.063 -19.8344 317.776 -20.6225 317.532 -21.4072C321.101 -29.7571 327.868 -37.1312 333.554 -42.8037L333.119 -43.1906C327.585 -37.6707 320.957 -30.4754 317.276 -22.2917C317.033 -23.1904 316.846 -24.0844 316.711 -24.9732C316.758 -25.1771 316.807 -25.3806 316.859 -25.5836C319.479 -35.9244 327.772 -45.0791 334.536 -51.8263L334.1 -52.2133C327.528 -45.657 319.411 -36.7372 316.521 -26.6049C316.287 -29.4822 316.582 -32.299 317.275 -35.0339C319.895 -45.3746 328.188 -54.5293 334.952 -61.2765L334.516 -61.6635ZM314.565 -7.74686C314.494 -7.60931 314.425 -7.47146 314.356 -7.33332C314.43 -7.43873 314.504 -7.5439 314.579 -7.64881L314.569 -7.75086L314.565 -7.74686ZM316.271 -9.92485C316.483 -10.1987 316.697 -10.4707 316.912 -10.7407C316.829 -10.9724 316.75 -11.2039 316.674 -11.435C316.291 -10.8284 315.922 -10.2149 315.567 -9.5946C315.736 -9.76488 315.905 -9.93365 316.073 -10.1009L316.271 -9.92485ZM320.538 -13.8775C319.927 -13.2614 319.304 -12.6257 318.676 -11.9715C319.261 -12.6676 319.852 -13.3497 320.446 -14.0171L320.506 -13.9258L320.538 -13.8775ZM320.118 -14.5269C319.907 -14.8621 319.705 -15.197 319.511 -15.5316C318.664 -14.4072 317.85 -13.2528 317.081 -12.0708C317.162 -11.8048 317.248 -11.5384 317.34 -11.2716C318.25 -12.3925 319.182 -13.4786 320.118 -14.5269ZM314.411 -8.72306L314.337 -8.58501C314.382 -8.75153 314.429 -8.91774 314.477 -9.08364C314.48 -9.0107 314.483 -8.93772 314.487 -8.8647L314.411 -8.72306ZM316.445 -12.1698C315.959 -11.4141 315.491 -10.6469 315.045 -9.86909C315.042 -10.2091 315.046 -10.5482 315.057 -10.8863C315.368 -11.7613 315.716 -12.6266 316.097 -13.4815C316.2 -13.0454 316.316 -12.6081 316.445 -12.1698ZM319.196 -16.0872C318.389 -15.0235 317.608 -13.9319 316.867 -12.8145C316.726 -13.331 316.605 -13.846 316.501 -14.3594C317.054 -15.5232 317.666 -16.6667 318.326 -17.7878C318.592 -17.2221 318.882 -16.6552 319.196 -16.0872ZM318.028 -18.4399C318.001 -18.5023 317.974 -18.5648 317.947 -18.6272C317.665 -19.2809 317.413 -19.9326 317.192 -20.5821C316.768 -19.5202 316.398 -18.4431 316.09 -17.3523C316.139 -16.6851 316.216 -16.0146 316.323 -15.341C316.849 -16.392 317.42 -17.4255 318.028 -18.4399ZM315.889 -14.4449C315.806 -14.8681 315.735 -15.2901 315.676 -15.7109C315.471 -14.7852 315.312 -13.8505 315.205 -12.9075C315.421 -13.4238 315.649 -13.9363 315.889 -14.4449ZM316.911 -21.4545C316.588 -20.689 316.292 -19.9151 316.026 -19.1334C316.027 -20.583 316.158 -22.0157 316.4 -23.4287C316.541 -22.7732 316.711 -22.1151 316.911 -21.4545ZM292.347 19.8258C295.006 9.33223 303.401 0.0868259 310.162 -6.65754L310.597 -6.27056C303.833 0.476598 295.54 9.63133 292.92 19.9721C291.613 25.1333 291.72 30.5863 294.137 36.1868C296.555 41.7901 301.295 47.5632 309.292 53.3474C327.91 66.8139 345.204 67.4901 358.602 68.014C359.846 68.0626 361.056 68.1099 362.231 68.166C369.122 68.4953 374.867 69.1274 378.901 72.2064C382.955 75.3008 385.206 80.7986 385.319 90.656L384.731 90.642C384.617 80.8339 382.375 75.5584 378.539 72.6308C374.684 69.6878 369.142 69.0493 362.222 68.7187C361.049 68.6627 359.84 68.6155 358.595 68.5669C345.191 68.0442 327.72 67.3629 308.943 53.7813C300.883 47.9514 296.061 42.1004 293.592 36.3787C291.122 30.6544 291.016 25.0816 292.347 19.8258ZM303.726 -4.08031C296.965 2.66406 288.57 11.9095 285.912 22.403C284.58 27.6589 284.686 33.2316 287.156 38.9559C289.626 44.6776 294.447 50.5287 302.507 56.3585C321.284 69.9401 338.755 70.6214 352.159 71.1442L352.159 71.1442C353.404 71.1927 354.614 71.2399 355.786 71.2959C362.706 71.6265 368.248 72.265 372.104 75.208C375.939 78.1356 378.182 83.4111 378.295 93.2193L378.884 93.2332C378.77 83.3759 376.519 77.878 372.465 74.7836C368.431 71.7046 362.687 71.0725 355.795 70.7433C354.621 70.6872 353.41 70.6398 352.167 70.5912C338.769 70.0674 321.474 69.3911 302.856 55.9246C294.859 50.1404 290.119 44.3673 287.701 38.7641C285.284 33.1635 285.177 27.7106 286.485 22.5493C289.105 12.2086 297.398 3.05383 304.162 -3.69333L303.726 -4.08031ZM279.127 24.3579C281.786 13.8644 290.181 4.61897 296.942 -2.1254L297.377 -1.73842C290.613 5.00874 282.32 14.1635 279.7 24.5042C278.393 29.6655 278.5 35.1184 280.917 40.719C283.335 46.3222 288.075 52.0953 296.071 57.8795C314.689 71.346 331.984 72.0223 345.382 72.5461C346.626 72.5948 347.836 72.6421 349.01 72.6982C355.902 73.0274 361.647 73.6595 365.681 76.7385C369.735 79.8329 371.986 85.3308 372.099 95.1881L371.51 95.1742C371.397 85.3661 369.155 80.0905 365.319 77.163C361.463 74.2199 355.922 73.5814 349.002 73.2508C347.829 73.1948 346.62 73.1476 345.375 73.0991C331.971 72.5764 314.5 71.895 295.723 58.3134C287.663 52.4836 282.841 46.6325 280.372 40.9109C277.902 35.1865 277.795 29.6138 279.127 24.3579ZM289.952 -0.557702C283.191 6.18667 274.796 15.4321 272.138 25.9256C270.806 31.1815 270.912 36.7542 273.383 42.4786C275.852 48.2002 280.673 54.0513 288.734 59.8811C307.511 73.4627 324.982 74.1441 338.386 74.6668C339.63 74.7153 340.84 74.7625 342.012 74.8185C348.933 75.1491 354.474 75.7876 358.33 78.7307C362.165 81.6582 364.408 86.9337 364.521 96.7419L365.11 96.7558C364.996 86.8985 362.745 81.4006 358.691 78.3062C354.657 75.2272 348.913 74.5951 342.021 74.2659C340.847 74.2098 339.637 74.1625 338.393 74.1138C324.995 73.59 307.7 72.9137 289.082 59.4472C281.085 53.663 276.346 47.8899 273.927 42.2867C271.511 36.6861 271.403 31.2332 272.711 26.0719C275.331 15.7312 283.624 6.57644 290.388 -0.17072L289.952 -0.557702ZM265.051 27.3041C267.71 16.8106 276.105 7.56518 282.866 0.820812L283.301 1.20779C276.538 7.95495 268.244 17.1097 265.625 27.4504C264.317 32.6117 264.424 38.0646 266.841 43.6652C269.259 49.2684 273.999 55.0415 281.996 60.8257C300.614 74.2922 317.909 74.9685 331.307 75.4923C332.55 75.541 333.76 75.5883 334.935 75.6444C341.827 75.9737 347.571 76.6057 351.605 79.6847C355.659 82.7791 357.91 88.277 358.024 98.1343L357.435 98.1204C357.322 88.3123 355.079 83.0367 351.243 80.1092C347.388 77.1662 341.846 76.5276 334.926 76.197C333.754 76.141 332.544 76.0938 331.299 76.0453C317.895 75.5226 300.424 74.8412 281.647 61.2597C273.587 55.4298 268.765 49.5788 266.296 43.8571C263.826 38.1327 263.72 32.56 265.051 27.3041ZM275.764 2.16757C269.003 8.91193 260.608 18.1573 257.95 28.6509C256.618 33.9067 256.724 39.4795 259.195 45.2038C261.664 50.9255 266.485 56.7765 274.545 62.6064C293.323 76.188 310.794 76.8693 324.198 77.3921C325.442 77.4406 326.652 77.4878 327.824 77.5438C334.744 77.8744 340.286 78.5129 344.142 81.4559C347.977 84.3835 350.22 89.659 350.333 99.4672L350.922 99.4811C350.808 89.6238 348.557 84.1259 344.503 81.0315C340.469 77.9525 334.725 77.3204 327.833 76.9911C326.659 76.935 325.449 76.8877 324.205 76.8391C310.807 76.3152 293.512 75.639 274.894 62.1725C266.897 56.3883 262.158 50.6152 259.739 45.0119C257.323 39.4114 257.215 33.9584 258.523 28.7972C261.143 18.4564 269.436 9.3017 276.2 2.55455L275.764 2.16757ZM250.891 30.084C253.549 19.5904 261.944 10.345 268.705 3.60068L269.141 3.98766C262.377 10.7348 254.084 19.8896 251.464 30.2303C250.156 35.3916 250.264 40.8445 252.68 46.4451C255.099 52.0483 259.838 57.8214 267.835 63.6056C286.453 77.0721 303.748 77.7483 317.146 78.2722C318.39 78.3208 319.6 78.3682 320.774 78.4243C327.666 78.7535 333.41 79.3856 337.444 82.4646C341.498 85.559 343.749 91.0569 343.863 100.914L343.274 100.9C343.161 91.0921 340.918 85.8166 337.083 82.889C333.227 79.946 327.686 79.3075 320.765 78.9769C319.593 78.9209 318.383 78.8737 317.139 78.8252C303.735 78.3024 286.264 77.6211 267.487 64.0395C259.426 58.2096 254.605 52.3586 252.136 46.6369C249.665 40.9126 249.559 35.3399 250.891 30.084ZM261.736 5.20689C254.975 11.9513 246.58 21.1967 243.921 31.6902C242.59 36.9461 242.696 42.5188 245.166 48.2431C247.636 53.9648 252.457 59.8158 260.517 65.6457C279.294 79.2273 296.765 79.9086 310.169 80.4314L310.169 80.4314C311.414 80.4799 312.624 80.5271 313.796 80.5831C320.716 80.9137 326.258 81.5522 330.114 84.4953C333.949 87.4228 336.192 92.6983 336.305 102.506L336.894 102.52C336.78 92.6631 334.529 87.1652 330.475 84.0708C326.441 80.9918 320.697 80.3597 313.805 80.0305C312.63 79.9744 311.42 79.927 310.177 79.8784C296.779 79.3546 279.484 78.6783 260.866 65.2118C252.869 59.4276 248.129 53.6545 245.711 48.0513C243.294 42.4507 243.187 36.9978 244.495 31.8365C247.115 21.4958 255.408 12.341 262.171 5.59387L261.736 5.20689ZM237.075 33.5295C239.734 23.036 248.129 13.7906 254.89 7.04624L255.325 7.43322C248.562 14.1804 240.268 23.3351 237.649 33.6759C236.341 38.8371 236.448 44.2901 238.865 49.8906C241.283 55.4938 246.023 61.267 254.02 67.0512C272.638 80.5177 289.933 81.1939 303.33 81.7178C304.574 81.7664 305.784 81.8137 306.959 81.8698C313.85 82.1991 319.595 82.8312 323.629 85.9101C327.683 89.0046 329.934 94.5024 330.048 104.36L329.459 104.346C329.346 94.5377 327.103 89.2622 323.267 86.3346C319.412 83.3916 313.87 82.7531 306.95 82.4225C305.778 82.3664 304.568 82.3193 303.323 82.2707L303.323 82.2707C289.919 81.748 272.448 81.0667 253.671 67.4851C245.611 61.6552 240.789 55.8042 238.32 50.0825C235.85 44.3582 235.744 38.7854 237.075 33.5295ZM248.191 9.15866C241.43 15.903 233.035 25.1484 230.377 35.642C229.045 40.8978 229.151 46.4706 231.622 52.1949C234.091 57.9166 238.912 63.7676 246.972 69.5975C265.749 83.1791 283.221 83.8604 296.624 84.3832L296.624 84.3831L296.624 84.3831C297.869 84.4317 299.079 84.4789 300.251 84.5349C307.171 84.8655 312.713 85.504 316.569 88.447C320.404 91.3746 322.647 96.6501 322.76 106.458L323.349 106.472C323.235 96.6148 320.984 91.117 316.93 88.0226C312.896 84.9436 307.152 84.3115 300.26 83.9822C299.086 83.9261 297.875 83.8788 296.632 83.8302C283.234 83.3063 265.939 82.6301 247.321 69.1636C239.324 63.3794 234.584 57.6063 232.166 52.003C229.749 46.4025 229.642 40.9495 230.95 35.7883C233.57 25.4475 241.863 16.2928 248.627 9.54564L248.191 9.15866Z" fill="url(#paint1_radial_30_175)" fill-opacity="0.58"/>
<path d="M19.82 24V17.06H20.48L20.76 18.15V24H19.82ZM24.62 24L20.36 18.31L20.48 17.06L24.75 22.74L24.62 24ZM24.62 24L24.34 22.97V17.06H25.28V24H24.62ZM28.9596 24.1C28.4863 24.1 28.0596 23.9933 27.6796 23.78C27.2996 23.56 26.9996 23.2633 26.7796 22.89C26.5596 22.5167 26.4496 22.0933 26.4496 21.62C26.4496 21.1533 26.5563 20.7333 26.7696 20.36C26.9896 19.9867 27.2829 19.6933 27.6496 19.48C28.0229 19.26 28.4396 19.15 28.8996 19.15C29.3396 19.15 29.7263 19.25 30.0596 19.45C30.3996 19.65 30.6629 19.9267 30.8496 20.28C31.0429 20.6333 31.1396 21.0333 31.1396 21.48C31.1396 21.5467 31.1363 21.62 31.1296 21.7C31.1229 21.7733 31.1096 21.86 31.0896 21.96H27.0796V21.21H30.6096L30.2796 21.5C30.2796 21.18 30.2229 20.91 30.1096 20.69C29.9963 20.4633 29.8363 20.29 29.6296 20.17C29.4229 20.0433 29.1729 19.98 28.8796 19.98C28.5729 19.98 28.3029 20.0467 28.0696 20.18C27.8363 20.3133 27.6563 20.5 27.5296 20.74C27.4029 20.98 27.3396 21.2633 27.3396 21.59C27.3396 21.9233 27.4063 22.2167 27.5396 22.47C27.6729 22.7167 27.8629 22.91 28.1096 23.05C28.3563 23.1833 28.6396 23.25 28.9596 23.25C29.2263 23.25 29.4696 23.2033 29.6896 23.11C29.9163 23.0167 30.1096 22.8767 30.2696 22.69L30.8496 23.28C30.6229 23.5467 30.3429 23.75 30.0096 23.89C29.6829 24.03 29.3329 24.1 28.9596 24.1ZM33.4223 24L31.5423 19.25H32.4823L33.8423 22.95H33.5423L34.8923 19.25H35.4123L36.7623 22.95H36.4623L37.8223 19.25H38.7623L36.8923 24H36.3623L34.9923 20.41H35.3223L33.9423 24H33.4223ZM41.0092 24L43.8492 17.06H44.5292L47.3592 24H46.3392L44.0092 18.13H44.3592L42.0092 24H41.0092ZM42.3592 22.43V21.61H46.0092V22.43H42.3592ZM48.3221 24V16.86H49.2221V24H48.3221ZM53.0389 24.1C52.6789 24.1 52.3522 24.0267 52.0589 23.88C51.7722 23.7267 51.5422 23.5167 51.3689 23.25C51.1956 22.9833 51.0989 22.68 51.0789 22.34V20.91C51.0989 20.5633 51.1956 20.26 51.3689 20C51.5489 19.7333 51.7822 19.5267 52.0689 19.38C52.3622 19.2267 52.6856 19.15 53.0389 19.15C53.4722 19.15 53.8622 19.26 54.2089 19.48C54.5622 19.7 54.8389 19.9967 55.0389 20.37C55.2389 20.7433 55.3389 21.1633 55.3389 21.63C55.3389 22.0967 55.2389 22.5167 55.0389 22.89C54.8389 23.2633 54.5622 23.56 54.2089 23.78C53.8622 23.9933 53.4722 24.1 53.0389 24.1ZM52.8889 23.25C53.1889 23.25 53.4522 23.18 53.6789 23.04C53.9056 22.9 54.0856 22.71 54.2189 22.47C54.3522 22.2233 54.4189 21.94 54.4189 21.62C54.4189 21.3067 54.3522 21.0267 54.2189 20.78C54.0856 20.5333 53.9056 20.3433 53.6789 20.21C53.4522 20.07 53.1922 20 52.8989 20C52.5989 20 52.3356 20.07 52.1089 20.21C51.8822 20.3433 51.7056 20.5333 51.5789 20.78C51.4522 21.0267 51.3889 21.31 51.3889 21.63C51.3889 21.9433 51.4489 22.2233 51.5689 22.47C51.6956 22.71 51.8722 22.9 52.0989 23.04C52.3322 23.18 52.5956 23.25 52.8889 23.25ZM50.5389 24V16.86H51.4389V20.41L51.2689 21.56L51.4389 22.72V24H50.5389ZM58.2692 24.1C57.8826 24.1 57.5326 24.0133 57.2192 23.84C56.9126 23.66 56.6726 23.4133 56.4992 23.1C56.3259 22.7867 56.2392 22.4233 56.2392 22.01V19.25H57.1392V21.97C57.1392 22.23 57.1826 22.4567 57.2692 22.65C57.3626 22.8367 57.4959 22.98 57.6692 23.08C57.8426 23.18 58.0459 23.23 58.2792 23.23C58.6326 23.23 58.9092 23.12 59.1092 22.9C59.3092 22.6733 59.4092 22.3633 59.4092 21.97V19.25H60.3092V22.01C60.3092 22.4233 60.2226 22.7867 60.0492 23.1C59.8759 23.4133 59.6359 23.66 59.3292 23.84C59.0292 24.0133 58.6759 24.1 58.2692 24.1ZM61.5155 24V19.25H62.4155V24H61.5155ZM64.7255 24V21.13C64.7255 20.7767 64.6155 20.5 64.3955 20.3C64.1821 20.0933 63.9121 19.99 63.5855 19.99C63.3655 19.99 63.1688 20.0367 62.9955 20.13C62.8221 20.2233 62.6821 20.3533 62.5755 20.52C62.4688 20.6867 62.4155 20.8867 62.4155 21.12L62.0455 20.94C62.0455 20.58 62.1221 20.2667 62.2755 20C62.4355 19.7333 62.6521 19.5267 62.9255 19.38C63.1988 19.2267 63.5055 19.15 63.8455 19.15C64.1788 19.15 64.4788 19.2233 64.7455 19.37C65.0188 19.5167 65.2321 19.7233 65.3855 19.99C65.5455 20.2567 65.6255 20.5733 65.6255 20.94V24H64.7255ZM67.9355 24V21.13C67.9355 20.7767 67.8255 20.5 67.6055 20.3C67.3921 20.0933 67.1255 19.99 66.8055 19.99C66.5855 19.99 66.3855 20.0367 66.2055 20.13C66.0321 20.2233 65.8921 20.3533 65.7855 20.52C65.6788 20.6867 65.6255 20.8867 65.6255 21.12L65.1155 20.94C65.1355 20.5733 65.2321 20.26 65.4055 20C65.5855 19.7333 65.8155 19.5267 66.0955 19.38C66.3755 19.2267 66.6821 19.15 67.0155 19.15C67.3621 19.15 67.6721 19.2233 67.9455 19.37C68.2188 19.5167 68.4355 19.7233 68.5955 19.99C68.7621 20.2567 68.8455 20.5767 68.8455 20.95V24H67.9355Z" fill="#FBFBFB"/>
<path d="M20.872 98V96.882H23.381C24.0483 96.882 24.6333 96.739 25.136 96.453C25.6387 96.1583 26.0287 95.7553 26.306 95.244C26.592 94.7327 26.735 94.1433 26.735 93.476C26.735 92.8173 26.592 92.2323 26.306 91.721C26.02 91.2097 25.6257 90.811 25.123 90.525C24.6203 90.239 24.0397 90.096 23.381 90.096H20.885V88.978H23.407C24.0657 88.978 24.6723 89.0907 25.227 89.316C25.7903 89.5413 26.2757 89.8577 26.683 90.265C27.099 90.6723 27.4197 91.149 27.645 91.695C27.879 92.241 27.996 92.839 27.996 93.489C27.996 94.1303 27.879 94.7283 27.645 95.283C27.4197 95.829 27.1033 96.3057 26.696 96.713C26.2887 97.1203 25.8033 97.4367 25.24 97.662C24.6853 97.8873 24.083 98 23.433 98H20.872ZM20.066 98V88.978H21.288V98H20.066ZM31.964 98.13C31.4614 98.13 31.0064 98.0173 30.599 97.792C30.2004 97.558 29.8884 97.2373 29.663 96.83C29.4377 96.4227 29.325 95.9503 29.325 95.413V91.825H30.495V95.361C30.495 95.699 30.5514 95.9937 30.664 96.245C30.7854 96.4877 30.9587 96.674 31.184 96.804C31.4094 96.934 31.6737 96.999 31.977 96.999C32.4364 96.999 32.796 96.856 33.056 96.57C33.316 96.2753 33.446 95.8723 33.446 95.361V91.825H34.616V95.413C34.616 95.9503 34.5034 96.4227 34.278 96.83C34.0527 97.2373 33.7407 97.558 33.342 97.792C32.952 98.0173 32.4927 98.13 31.964 98.13ZM38.8102 98.13C38.2468 98.13 37.7355 97.9913 37.2762 97.714C36.8168 97.428 36.4528 97.0423 36.1842 96.557C35.9242 96.0717 35.7942 95.5257 35.7942 94.919C35.7942 94.3123 35.9242 93.7663 36.1842 93.281C36.4528 92.7957 36.8125 92.41 37.2632 92.124C37.7225 91.838 38.2382 91.695 38.8102 91.695C39.2782 91.695 39.6942 91.7947 40.0582 91.994C40.4308 92.1847 40.7298 92.4533 40.9552 92.8C41.1805 93.138 41.3062 93.5323 41.3322 93.983V95.842C41.3062 96.284 41.1805 96.6783 40.9552 97.025C40.7385 97.3717 40.4438 97.6447 40.0712 97.844C39.7072 98.0347 39.2868 98.13 38.8102 98.13ZM39.0052 97.025C39.5858 97.025 40.0538 96.83 40.4092 96.44C40.7645 96.0413 40.9422 95.5343 40.9422 94.919C40.9422 94.4943 40.8598 94.126 40.6952 93.814C40.5392 93.4933 40.3138 93.2463 40.0192 93.073C39.7245 92.891 39.3822 92.8 38.9922 92.8C38.6022 92.8 38.2555 92.891 37.9522 93.073C37.6575 93.255 37.4235 93.5063 37.2502 93.827C37.0855 94.139 37.0032 94.4987 37.0032 94.906C37.0032 95.322 37.0855 95.6903 37.2502 96.011C37.4235 96.323 37.6618 96.57 37.9652 96.752C38.2685 96.934 38.6152 97.025 39.0052 97.025ZM40.8642 98V96.336L41.0852 94.828L40.8642 93.333V91.825H42.0472V98H40.8642ZM46.6627 98V88.978H47.8847V98H46.6627ZM47.4947 98V96.882H52.3307V98H47.4947ZM53.6405 98V91.825H54.8105V98H53.6405ZM54.2255 90.59C54.0089 90.59 53.8312 90.5207 53.6925 90.382C53.5539 90.2347 53.4845 90.0527 53.4845 89.836C53.4845 89.628 53.5539 89.4547 53.6925 89.316C53.8312 89.1687 54.0089 89.095 54.2255 89.095C54.4422 89.095 54.6199 89.1687 54.7585 89.316C54.8972 89.4547 54.9665 89.628 54.9665 89.836C54.9665 90.0527 54.8972 90.2347 54.7585 90.382C54.6199 90.5207 54.4422 90.59 54.2255 90.59ZM59.7848 98.13C59.3168 98.13 58.8921 98.0347 58.5108 97.844C58.1381 97.6447 57.8391 97.3717 57.6138 97.025C57.3884 96.6783 57.2628 96.284 57.2368 95.842V93.983C57.2628 93.5323 57.3884 93.138 57.6138 92.8C57.8478 92.4533 58.1511 92.1847 58.5238 91.994C58.9051 91.7947 59.3254 91.695 59.7848 91.695C60.3481 91.695 60.8551 91.838 61.3058 92.124C61.7651 92.41 62.1248 92.7957 62.3848 93.281C62.6448 93.7663 62.7748 94.3123 62.7748 94.919C62.7748 95.5257 62.6448 96.0717 62.3848 96.557C62.1248 97.0423 61.7651 97.428 61.3058 97.714C60.8551 97.9913 60.3481 98.13 59.7848 98.13ZM59.5898 97.025C59.9798 97.025 60.3221 96.934 60.6168 96.752C60.9114 96.57 61.1454 96.323 61.3188 96.011C61.4921 95.6903 61.5788 95.322 61.5788 94.906C61.5788 94.4987 61.4921 94.1347 61.3188 93.814C61.1454 93.4933 60.9114 93.2463 60.6168 93.073C60.3221 92.891 59.9841 92.8 59.6028 92.8C59.2128 92.8 58.8704 92.891 58.5758 93.073C58.2811 93.2463 58.0514 93.4933 57.8868 93.814C57.7221 94.1347 57.6398 94.503 57.6398 94.919C57.6398 95.3263 57.7178 95.6903 57.8738 96.011C58.0384 96.323 58.2681 96.57 58.5628 96.752C58.8661 96.934 59.2084 97.025 59.5898 97.025ZM56.5348 100.587V91.825H57.7048V93.45L57.4838 94.945L57.7048 96.453V100.587H56.5348ZM66.7272 98.13C66.1638 98.13 65.6525 97.9913 65.1932 97.714C64.7338 97.428 64.3698 97.0423 64.1012 96.557C63.8412 96.0717 63.7112 95.5257 63.7112 94.919C63.7112 94.3123 63.8412 93.7663 64.1012 93.281C64.3698 92.7957 64.7295 92.41 65.1802 92.124C65.6395 91.838 66.1552 91.695 66.7272 91.695C67.1952 91.695 67.6112 91.7947 67.9752 91.994C68.3478 92.1847 68.6468 92.4533 68.8722 92.8C69.0975 93.138 69.2232 93.5323 69.2492 93.983V95.842C69.2232 96.284 69.0975 96.6783 68.8722 97.025C68.6555 97.3717 68.3608 97.6447 67.9882 97.844C67.6242 98.0347 67.2038 98.13 66.7272 98.13ZM66.9222 97.025C67.5028 97.025 67.9708 96.83 68.3262 96.44C68.6815 96.0413 68.8592 95.5343 68.8592 94.919C68.8592 94.4943 68.7768 94.126 68.6122 93.814C68.4562 93.4933 68.2308 93.2463 67.9362 93.073C67.6415 92.891 67.2992 92.8 66.9092 92.8C66.5192 92.8 66.1725 92.891 65.8692 93.073C65.5745 93.255 65.3405 93.5063 65.1672 93.827C65.0025 94.139 64.9202 94.4987 64.9202 94.906C64.9202 95.322 65.0025 95.6903 65.1672 96.011C65.3405 96.323 65.5788 96.57 65.8822 96.752C66.1855 96.934 66.5322 97.025 66.9222 97.025ZM68.7812 98V96.336L69.0022 94.828L68.7812 93.333V91.825H69.9642V98H68.7812Z" fill="#FBFBFB"/>
<path d="M22.572 45.471V43.267H25.403C25.9983 43.267 26.4543 43.115 26.771 42.811C27.1003 42.507 27.265 42.0953 27.265 41.576C27.265 41.0947 27.1067 40.6957 26.79 40.379C26.4733 40.0623 26.0173 39.904 25.422 39.904H22.572V37.586H25.764C26.6507 37.586 27.4297 37.757 28.101 38.099C28.7723 38.4283 29.298 38.8907 29.678 39.486C30.058 40.0813 30.248 40.7653 30.248 41.538C30.248 42.3233 30.058 43.0137 29.678 43.609C29.298 44.1917 28.766 44.6477 28.082 44.977C27.398 45.3063 26.5937 45.471 25.669 45.471H22.572ZM20.292 51V37.586H23.275V51H20.292ZM27.588 51L23.408 45.224L26.144 44.483L31.122 51H27.588ZM35.7766 51.19C34.9279 51.19 34.1679 50.981 33.4966 50.563C32.8379 50.145 32.3122 49.575 31.9196 48.853C31.5396 48.131 31.3496 47.3077 31.3496 46.383C31.3496 45.4583 31.5396 44.635 31.9196 43.913C32.3122 43.191 32.8379 42.621 33.4966 42.203C34.1679 41.785 34.9279 41.576 35.7766 41.576C36.3972 41.576 36.9546 41.6963 37.4486 41.937C37.9552 42.1777 38.3669 42.5133 38.6836 42.944C39.0002 43.362 39.1776 43.8433 39.2156 44.388V48.378C39.1776 48.9227 39.0002 49.4103 38.6836 49.841C38.3796 50.259 37.9742 50.5883 37.4676 50.829C36.9609 51.0697 36.3972 51.19 35.7766 51.19ZM36.3656 48.568C36.9862 48.568 37.4866 48.3653 37.8666 47.96C38.2466 47.542 38.4366 47.0163 38.4366 46.383C38.4366 45.9523 38.3479 45.5723 38.1706 45.243C38.0059 44.9137 37.7652 44.6603 37.4486 44.483C37.1446 44.293 36.7899 44.198 36.3846 44.198C35.9792 44.198 35.6182 44.293 35.3016 44.483C34.9976 44.6603 34.7506 44.9137 34.5606 45.243C34.3832 45.5723 34.2946 45.9523 34.2946 46.383C34.2946 46.801 34.3832 47.1747 34.5606 47.504C34.7379 47.8333 34.9849 48.093 35.3016 48.283C35.6182 48.473 35.9729 48.568 36.3656 48.568ZM38.3226 51V48.511L38.7596 46.269L38.3226 44.027V41.766H41.1726V51H38.3226ZM47.1524 51.19C46.2784 51.19 45.4994 50.981 44.8154 50.563C44.144 50.145 43.612 49.575 43.2194 48.853C42.8394 48.131 42.6494 47.3077 42.6494 46.383C42.6494 45.4583 42.8394 44.635 43.2194 43.913C43.612 43.191 44.144 42.621 44.8154 42.203C45.4994 41.785 46.2784 41.576 47.1524 41.576C47.7857 41.576 48.3557 41.6963 48.8624 41.937C49.3817 42.1777 49.806 42.5133 50.1354 42.944C50.4774 43.362 50.6674 43.8433 50.7054 44.388V48.283C50.6674 48.8277 50.4837 49.3217 50.1544 49.765C49.825 50.1957 49.4007 50.544 48.8814 50.81C48.362 51.0633 47.7857 51.19 47.1524 51.19ZM47.6654 48.568C48.0834 48.568 48.4444 48.4793 48.7484 48.302C49.0524 48.112 49.293 47.8523 49.4704 47.523C49.6477 47.1937 49.7364 46.8137 49.7364 46.383C49.7364 45.9523 49.6477 45.5787 49.4704 45.262C49.3057 44.9327 49.065 44.673 48.7484 44.483C48.4444 44.293 48.0897 44.198 47.6844 44.198C47.279 44.198 46.918 44.293 46.6014 44.483C46.2974 44.673 46.0504 44.9327 45.8604 45.262C45.683 45.5913 45.5944 45.965 45.5944 46.383C45.5944 46.801 45.683 47.1747 45.8604 47.504C46.0377 47.8333 46.2847 48.093 46.6014 48.283C46.918 48.473 47.2727 48.568 47.6654 48.568ZM52.4724 51H49.6224V48.511L50.0594 46.269L49.5654 44.027V37.206H52.4724V51ZM54.5192 51V41.766H57.4262V51H54.5192ZM55.9822 40.493C55.5262 40.493 55.1462 40.341 54.8422 40.037C54.5508 39.7203 54.4052 39.3403 54.4052 38.897C54.4052 38.441 54.5508 38.061 54.8422 37.757C55.1462 37.453 55.5262 37.301 55.9822 37.301C56.4382 37.301 56.8118 37.453 57.1032 37.757C57.3945 38.061 57.5402 38.441 57.5402 38.897C57.5402 39.3403 57.3945 39.7203 57.1032 40.037C56.8118 40.341 56.4382 40.493 55.9822 40.493ZM63.9383 51.209C62.9883 51.209 62.1269 51 61.3543 50.582C60.5816 50.164 59.9736 49.5877 59.5303 48.853C59.0869 48.1183 58.8653 47.295 58.8653 46.383C58.8653 45.4583 59.0869 44.635 59.5303 43.913C59.9863 43.1783 60.6006 42.602 61.3733 42.184C62.1459 41.766 63.0136 41.557 63.9763 41.557C64.6983 41.557 65.3569 41.6837 65.9523 41.937C66.5603 42.1777 67.0986 42.545 67.5673 43.039L65.7053 44.901C65.4899 44.6603 65.2366 44.483 64.9453 44.369C64.6666 44.255 64.3436 44.198 63.9763 44.198C63.5583 44.198 63.1846 44.293 62.8553 44.483C62.5386 44.6603 62.2853 44.9137 62.0953 45.243C61.9179 45.5597 61.8293 45.9333 61.8293 46.364C61.8293 46.7947 61.9179 47.1747 62.0953 47.504C62.2853 47.8333 62.5449 48.093 62.8743 48.283C63.2036 48.473 63.5709 48.568 63.9763 48.568C64.3563 48.568 64.6919 48.5047 64.9833 48.378C65.2873 48.2387 65.5469 48.0487 65.7623 47.808L67.6053 49.67C67.1239 50.1767 66.5793 50.563 65.9713 50.829C65.3633 51.0823 64.6856 51.209 63.9383 51.209ZM72.5334 51.19C71.6847 51.19 70.9247 50.981 70.2534 50.563C69.5947 50.145 69.0691 49.575 68.6764 48.853C68.2964 48.131 68.1064 47.3077 68.1064 46.383C68.1064 45.4583 68.2964 44.635 68.6764 43.913C69.0691 43.191 69.5947 42.621 70.2534 42.203C70.9247 41.785 71.6847 41.576 72.5334 41.576C73.1541 41.576 73.7114 41.6963 74.2054 41.937C74.7121 42.1777 75.1237 42.5133 75.4404 42.944C75.7571 43.362 75.9344 43.8433 75.9724 44.388V48.378C75.9344 48.9227 75.7571 49.4103 75.4404 49.841C75.1364 50.259 74.7311 50.5883 74.2244 50.829C73.7177 51.0697 73.1541 51.19 72.5334 51.19ZM73.1224 48.568C73.7431 48.568 74.2434 48.3653 74.6234 47.96C75.0034 47.542 75.1934 47.0163 75.1934 46.383C75.1934 45.9523 75.1047 45.5723 74.9274 45.243C74.7627 44.9137 74.5221 44.6603 74.2054 44.483C73.9014 44.293 73.5467 44.198 73.1414 44.198C72.7361 44.198 72.3751 44.293 72.0584 44.483C71.7544 44.6603 71.5074 44.9137 71.3174 45.243C71.1401 45.5723 71.0514 45.9523 71.0514 46.383C71.0514 46.801 71.1401 47.1747 71.3174 47.504C71.4947 47.8333 71.7417 48.093 72.0584 48.283C72.3751 48.473 72.7297 48.568 73.1224 48.568ZM75.0794 51V48.511L75.5164 46.269L75.0794 44.027V41.766H77.9294V51H75.0794ZM79.9762 51V37.206H82.8832V51H79.9762ZM26.695 75.228C25.6817 75.228 24.7443 75.0507 23.883 74.696C23.0343 74.3413 22.287 73.8473 21.641 73.214C20.995 72.5807 20.4947 71.846 20.14 71.01C19.7853 70.1613 19.608 69.2493 19.608 68.274C19.608 67.286 19.7853 66.374 20.14 65.538C20.4947 64.702 20.9887 63.9737 21.622 63.353C22.2553 62.7197 22.9963 62.232 23.845 61.89C24.7063 61.5353 25.6437 61.358 26.657 61.358C27.6577 61.358 28.5823 61.5353 29.431 61.89C30.2923 62.232 31.0397 62.7197 31.673 63.353C32.319 63.9737 32.8193 64.7083 33.174 65.557C33.5287 66.393 33.706 67.305 33.706 68.293C33.706 69.2683 33.5287 70.1803 33.174 71.029C32.8193 71.865 32.3253 72.5997 31.692 73.233C31.0587 73.8537 30.3113 74.3413 29.45 74.696C28.6013 75.0507 27.683 75.228 26.695 75.228ZM26.657 72.511C27.455 72.511 28.1517 72.3337 28.747 71.979C29.355 71.6243 29.8237 71.1303 30.153 70.497C30.4823 69.851 30.647 69.11 30.647 68.274C30.647 67.6407 30.552 67.0707 30.362 66.564C30.172 66.0447 29.8997 65.6013 29.545 65.234C29.1903 64.854 28.766 64.569 28.272 64.379C27.7907 64.1763 27.2523 64.075 26.657 64.075C25.859 64.075 25.156 64.2523 24.548 64.607C23.9527 64.949 23.4903 65.4367 23.161 66.07C22.8317 66.6907 22.667 67.4253 22.667 68.274C22.667 68.9073 22.762 69.4837 22.952 70.003C23.142 70.5223 23.408 70.972 23.75 71.352C24.1047 71.7193 24.529 72.0043 25.023 72.207C25.517 72.4097 26.0617 72.511 26.657 72.511ZM40.6536 75.19C40.033 75.19 39.463 75.0697 38.9436 74.829C38.4243 74.5883 38 74.259 37.6706 73.841C37.3413 73.4103 37.1513 72.9227 37.1006 72.378V68.483C37.1513 67.9383 37.3413 67.4443 37.6706 67.001C38 66.5577 38.4243 66.2093 38.9436 65.956C39.463 65.7027 40.033 65.576 40.6536 65.576C41.5276 65.576 42.3003 65.785 42.9716 66.203C43.6556 66.621 44.1876 67.191 44.5676 67.913C44.9603 68.635 45.1566 69.4583 45.1566 70.383C45.1566 71.3077 44.9603 72.131 44.5676 72.853C44.1876 73.575 43.6556 74.145 42.9716 74.563C42.3003 74.981 41.5276 75.19 40.6536 75.19ZM40.1216 72.568C40.5396 72.568 40.9006 72.473 41.2046 72.283C41.5213 72.093 41.7683 71.8333 41.9456 71.504C42.123 71.1747 42.2116 70.801 42.2116 70.383C42.2116 69.9523 42.123 69.5723 41.9456 69.243C41.7683 68.9137 41.5213 68.6603 41.2046 68.483C40.9006 68.293 40.546 68.198 40.1406 68.198C39.7353 68.198 39.3743 68.293 39.0576 68.483C38.7536 68.6603 38.513 68.9137 38.3356 69.243C38.1583 69.5723 38.0696 69.9523 38.0696 70.383C38.0696 70.801 38.152 71.1747 38.3166 71.504C38.494 71.8333 38.741 72.093 39.0576 72.283C39.3743 72.473 39.729 72.568 40.1216 72.568ZM35.3336 78.895V65.766H38.2406V68.141L37.7656 70.383L38.2026 72.625V78.895H35.3336ZM47.7589 75V61.947H50.6659V75H47.7589ZM45.6689 68.236V65.766H52.7559V68.236H45.6689ZM54.0367 75V65.766H56.9437V75H54.0367ZM55.4997 64.493C55.0437 64.493 54.6637 64.341 54.3597 64.037C54.0684 63.7203 53.9227 63.3403 53.9227 62.897C53.9227 62.441 54.0684 62.061 54.3597 61.757C54.6637 61.453 55.0437 61.301 55.4997 61.301C55.9557 61.301 56.3294 61.453 56.6207 61.757C56.9121 62.061 57.0577 62.441 57.0577 62.897C57.0577 63.3403 56.9121 63.7203 56.6207 64.037C56.3294 64.341 55.9557 64.493 55.4997 64.493ZM58.9908 75V65.766H61.8978V75H58.9908ZM64.8998 75V69.604C64.8998 69.1353 64.7542 68.7743 64.4628 68.521C64.1842 68.255 63.8358 68.122 63.4178 68.122C63.1265 68.122 62.8668 68.1853 62.6388 68.312C62.4108 68.426 62.2272 68.5907 62.0878 68.806C61.9612 69.0213 61.8978 69.2873 61.8978 69.604L60.7768 69.11C60.7768 68.3753 60.9352 67.7483 61.2518 67.229C61.5685 66.697 61.9992 66.2917 62.5438 66.013C63.0885 65.7217 63.7028 65.576 64.3868 65.576C65.0328 65.576 65.6092 65.7217 66.1158 66.013C66.6352 66.3043 67.0468 66.7097 67.3508 67.229C67.6548 67.7483 67.8068 68.369 67.8068 69.091V75H64.8998ZM70.8088 75V69.604C70.8088 69.1353 70.6632 68.7743 70.3718 68.521C70.0932 68.255 69.7448 68.122 69.3268 68.122C69.0355 68.122 68.7758 68.1853 68.5478 68.312C68.3198 68.426 68.1362 68.5907 67.9968 68.806C67.8702 69.0213 67.8068 69.2873 67.8068 69.604L66.1348 69.376C66.1602 68.5907 66.3438 67.9193 66.6858 67.362C67.0405 66.792 67.5028 66.355 68.0728 66.051C68.6555 65.7343 69.3078 65.576 70.0298 65.576C70.7392 65.576 71.3662 65.728 71.9108 66.032C72.4682 66.3233 72.9052 66.7477 73.2218 67.305C73.5512 67.8497 73.7158 68.5083 73.7158 69.281V75H70.8088ZM75.5787 75V65.766H78.4857V75H75.5787ZM77.0417 64.493C76.5857 64.493 76.2057 64.341 75.9017 64.037C75.6104 63.7203 75.4647 63.3403 75.4647 62.897C75.4647 62.441 75.6104 62.061 75.9017 61.757C76.2057 61.453 76.5857 61.301 77.0417 61.301C77.4977 61.301 77.8714 61.453 78.1627 61.757C78.4541 62.061 78.5997 62.441 78.5997 62.897C78.5997 63.3403 78.4541 63.7203 78.1627 64.037C77.8714 64.341 77.4977 64.493 77.0417 64.493ZM83.8958 75.228C83.3512 75.228 82.8128 75.1583 82.2808 75.019C81.7615 74.8797 81.2738 74.6833 80.8178 74.43C80.3745 74.164 79.9945 73.86 79.6778 73.518L81.3308 71.846C81.6348 72.1753 81.9958 72.435 82.4138 72.625C82.8318 72.8023 83.2878 72.891 83.7818 72.891C84.1238 72.891 84.3835 72.8403 84.5608 72.739C84.7508 72.6377 84.8458 72.4983 84.8458 72.321C84.8458 72.093 84.7318 71.922 84.5038 71.808C84.2885 71.6813 84.0098 71.5737 83.6678 71.485C83.3258 71.3837 82.9648 71.276 82.5848 71.162C82.2048 71.048 81.8438 70.8897 81.5018 70.687C81.1598 70.4843 80.8812 70.2057 80.6658 69.851C80.4505 69.4837 80.3428 69.0213 80.3428 68.464C80.3428 67.8687 80.4948 67.3557 80.7988 66.925C81.1028 66.4817 81.5335 66.1333 82.0908 65.88C82.6482 65.6267 83.3005 65.5 84.0478 65.5C84.8332 65.5 85.5552 65.6393 86.2138 65.918C86.8852 66.184 87.4298 66.583 87.8478 67.115L86.1948 68.787C85.9035 68.445 85.5742 68.2043 85.2068 68.065C84.8522 67.9257 84.5038 67.856 84.1618 67.856C83.8325 67.856 83.5855 67.9067 83.4208 68.008C83.2562 68.0967 83.1738 68.2297 83.1738 68.407C83.1738 68.597 83.2815 68.749 83.4968 68.863C83.7122 68.977 83.9908 69.0783 84.3328 69.167C84.6748 69.2557 85.0358 69.3633 85.4158 69.49C85.7958 69.6167 86.1568 69.7877 86.4988 70.003C86.8408 70.2183 87.1195 70.5097 87.3348 70.877C87.5502 71.2317 87.6578 71.7003 87.6578 72.283C87.6578 73.1823 87.3158 73.898 86.6318 74.43C85.9605 74.962 85.0485 75.228 83.8958 75.228ZM89.235 75V65.766H92.142V75H89.235ZM95.144 75V69.604C95.144 69.1353 94.9983 68.7743 94.707 68.521C94.4283 68.255 94.08 68.122 93.662 68.122C93.3707 68.122 93.111 68.1853 92.883 68.312C92.655 68.426 92.4713 68.5907 92.332 68.806C92.2053 69.0213 92.142 69.2873 92.142 69.604L91.021 69.11C91.021 68.3753 91.1793 67.7483 91.496 67.229C91.8127 66.697 92.2433 66.2917 92.788 66.013C93.3327 65.7217 93.947 65.576 94.631 65.576C95.277 65.576 95.8533 65.7217 96.36 66.013C96.8793 66.3043 97.291 66.7097 97.595 67.229C97.899 67.7483 98.051 68.369 98.051 69.091V75H95.144ZM101.053 75V69.604C101.053 69.1353 100.907 68.7743 100.616 68.521C100.337 68.255 99.989 68.122 99.571 68.122C99.2797 68.122 99.02 68.1853 98.792 68.312C98.564 68.426 98.3803 68.5907 98.241 68.806C98.1143 69.0213 98.051 69.2873 98.051 69.604L96.379 69.376C96.4043 68.5907 96.588 67.9193 96.93 67.362C97.2847 66.792 97.747 66.355 98.317 66.051C98.8997 65.7343 99.552 65.576 100.274 65.576C100.983 65.576 101.61 65.728 102.155 66.032C102.712 66.3233 103.149 66.7477 103.466 67.305C103.795 67.8497 103.96 68.5083 103.96 69.281V75H101.053Z" fill="#FBFBFB"/>
</g>
<defs>
<linearGradient id="paint0_linear_30_175" x1="167" y1="0" x2="167" y2="118" gradientUnits="userSpaceOnUse">
<stop stop-color="#FFD319"/>
<stop offset="0.5" stop-color="#FF2975"/>
<stop offset="1" stop-color="#8C1EFF"/>
</linearGradient>
<radialGradient id="paint1_radial_30_175" cx="0" cy="0" r="1" gradientUnits="userSpaceOnUse" gradientTransform="translate(307.981 40.641) rotate(44.6554) scale(82.2368 83.1472)">
<stop stop-color="white"/>
<stop offset="1" stop-color="#1E1E1E" stop-opacity="0"/>
<stop offset="1" stop-color="#0E0E35" stop-opacity="0"/>
<stop offset="1" stop-color="white" stop-opacity="0"/>
</radialGradient>
<clipPath id="clip0_30_175">
<rect width="334" height="118" rx="30" fill="white"/>
</clipPath>
</defs>
</svg>
